<svg id="beer" xmlns="http://www.w3.org/2000/svg" viewBox="0 0 595.28 595.28"><title>anALE-alysisblack</title><path d="M474.18,264.2c13.23-27.53,20.48-52.08,10.49-88.17-8.11-29.29-42.54-55.34-71.25-63.71a220.82,220.82,0,0,0-97.4-5.79c-36.88,6.17-74.69,21.24-106.87,39.59,4.24-8.63,16.84-15.52,25.12-19.87,56.38-29.63,124.59-46.18,187.88-28.91,28.91,7.89,58,25.36,71.6,52.42C508,178.16,503.48,218,492,246.18c-6.84,16.81-20.48,38.61-37,51.46"/><path d="M157.33,233.06c-50.24-12.88-71.82,13.25-74.83,16.56-9.33,10.23-17.62,28.83-20.5,45.14C56.37,326.63,68.76,358,91.76,381.5,135.3,426,221.65,423.81,276.67,409.26a362.72,362.72,0,0,0,102.16-45.21c2.46-1.57,21.86-13.88,18.83-13.68-12.88.86-15.48,2.12-19.47,4.46-21.07,12.37-27.48,13.95-42.19,20.84-64.21,30-123.43,41.93-182.67,22.66-28.9-9.4-63.81-37.64-69.83-67.83C78.67,306.29,82,275.67,98,259.85c0,0,16.33-21.34,56.23-9.52"/><path d="M91.76,403.14c7,37.06,4.34,35.64,15.33,41.23C105.78,439.08,97.07,404.31,91.76,403.14Z"/><path d="M126.22,444.81c-.08-.11-7.22-7.8-7.33-7.87-2.15-4.47-11.8-16.25-11.8-11.28,0,6.06,12,41.65,13.27,45.56,4.78,3.09,11.92,3.64,24.25,4.5-4.91-11.29-8.09-17.08-13-28.38A39.86,39.86,0,0,1,126.22,444.81Z"/><path d="M237.16,460.31c.06,3.33,5.49,12-8.65,11.56-19-.7-24.49-13.59-42.52-24.5a221.8,221.8,0,0,0,82.38-6.86.65.65,0,0,0-.26-1.27C191.34,449,108.3,437.72,75.8,367.41a.65.65,0,0,0-1.22.45c7.35,25.25,26.93,50.65,62.18,66.65-2.25,2.65,6,17.24,26.26,58.88,6.18-1.2,6.79-5.64,19.59-5,6.26.3,10.73,2,13.72,4.3-24.33-47.11-11.13-23.41-39.85-41.22-7.2-6-10.47-11.11-13.17-14.22a162.29,162.29,0,0,0,38.16,9.62c.15,3.9,8.74,18.9,28.82,54.71,11.46,3.82,13.21-9.15,25.62-9.45,6.79-.34,18-.33,25.18,2.66-8.68-15-18.52-32.25-18.7-32.6C241.28,461.07,237.09,456.41,237.16,460.31Z"/><path d="M307.71,445.94c-6.11,17.42-27.76,17.55-42.12,10.16a1,1,0,0,0-.76-.39c-6.56-3.28-6.19-2.71,16.47,41,12.4-1.74,4.54-19.59,46.38-16.9,3.78,0,7.78,1.57,11.23,3.06C304.5,432.86,309.84,437.41,307.71,445.94Z"/><path d="M375.61,409.76c-12.54,3.57-14.47,16.48-26.58,20.3-10.92,3.44-20.55-2.41-21.85,2.82-2.27,9.06-2.21.16,25.73,45.56,2.71-5.8.78-6.71,3.24-11.15.69,0,11.62-16.63,32.82-19.11,8.4-.09,9.28,3.34,14.12,1C381.45,410.44,382.9,409.55,375.61,409.76Z"/><path d="M435,368.66c-1,10.62.73.55-1.72,11-2.25,3.06-15.58,16.38-23.71,16.79-3.7.19-5.27-1.16-8.83-1-8.48.4-.39,13.57,3.64,16.69,21.35,30,17.7,27.57,19,21.46,7.35-10.59,22-21.28,33.88-26.25,18.38-.85,20.17,8.58-13.55-35.81C439.4,364.4,434.92,366.92,435,368.66Z"/><path d="M486.14,306.78c-4.16.29-1.39,5.45-.69,14.49a19.67,19.67,0,0,1-.66,7.44c0,.53-13.93,24.47-20.11,25-2.28.19-10.64-7.89-10.58-2.19.06,6.16,9.21,16.46,25.85,41.54,5.27-37.46,33.23-25,40.45-41C512.58,340.66,487.74,306.66,486.14,306.78Z"/><path d="M560.9,252.73c.79-1.18-22-19.6-42.73-39.79a1.86,1.86,0,0,0-1.32-.5,107.21,107.21,0,0,0-2.41-24c5.88,9.5,14.36,16.56,15.23,28.61,15.11,15.7,9.82,9.41,19.65,18.6-1.75-5.59,6.62-12.42-2.26-24.6-13.63-10.93-20.53-15.24-33.33-25.82a100.15,100.15,0,0,0-8.2-21.29.65.65,0,0,0-1.2.49c18,58.94-6.55,111.56-41,161a.66.66,0,0,0,1,.84,194.36,194.36,0,0,0,43.29-66.68c1.7,3.07,4.43,6.18,6.18,13,3.78,16.31-1.14,29.61-8.23,35.66-6.94.44-19.25-20.17,12.9,27.49,1.26-20.54,32.72-19.11,33-38.11-.08-.1-33.32-39.31-40.82-46.69a135.44,135.44,0,0,0,6-32.33c5,11.78,21.33,35.19,8.76,41.55,12,14.64,17.66,20,20.06,22.71,3,3.43,1.22.35,1.22-2.73C546.68,260.63,561.85,259.4,560.9,252.73Z"/><path d="M201.29,242.83c.49,24.51,7.22,52.41,18.67,73.9-23,23.19-38.63-34.53-41.5-51.13-3-4-13.82-15.3-24.25-15.27A199.38,199.38,0,0,0,152,276.65c-.85,19.48.23,38.53,9,57.62-68.1,13.2-13.86-153.43-.1-162.46C211,136.61,200.6,211.79,201.29,242.83Zm-22.18-64.48c-8.41-8.79-17.62,40.86-21.78,54.71,4.08-.25,16.13,2.89,22.26,7.73C180.32,222.75,181.3,189,179.11,178.35Z"/><path d="M248.28,204c-7.26,36.34-12.87,68.17-3.52,67.19s17.14-20.48,17.14-20.48c10.19-.63,7,10.4,7,10.4-3.28,6.54-17.23,30.61-31.79,33.35-19.22,3.23-28.47-24-20.08-67.06,8.09-42.93-.75-71.73-.75-71.73C256.85,140.73,255.43,167.4,248.28,204Z"/><path d="M303.09,278.68c-32.47,4-56.74-36.28-37.83-67.92,12.35-20.29,35.57-31.74,44.49-32.9,0,0,19.59-2.34,14,16.62-4.8,16.55-22.17,43.39-35.62,54,10.32,24.73,56.53,13.16,83.86-48,0,0,4.09-1.31,3.33,3.84C372.67,222.56,341.85,273.83,303.09,278.68ZM284.87,237c6.45-6.43,14.34-16.22,15.57-26.12,1.05-9.47-3.39-11.85-6.62-9.51C284.25,208.67,283.4,224.68,284.87,237Z"/><path d="M79.64,161h8a5.13,5.13,0,0,1,1.79.23,1.64,1.64,0,0,1,.89.83,3.93,3.93,0,0,1,.3,1.72c.09,2.34.2,4.67.33,7,0,1.42.09,2.83.13,4.25l.27,5.57q.6,15,1.19,30c.05,1.64.09,3.25.14,4.84,0,.49,0,1-.07,1.4a2.36,2.36,0,0,1-2,2,4.46,4.46,0,0,1-1.26.2H82.63a2.62,2.62,0,0,1-1.56-.63,2.23,2.23,0,0,1-.5-1.62q-.13-3.26-.13-6.63a11,11,0,0,0-.07-1.53c0-.31-.16-.5-.36-.56a2.24,2.24,0,0,0-.9,0h-.86c-2,0-4.09,0-6.16,0h-.34a5.78,5.78,0,0,0-1,.07.77.77,0,0,0-.5.33,4.27,4.27,0,0,0-.36.93c-.45,1.15-.86,2.3-1.26,3.45l-1.33,3.58a4.29,4.29,0,0,1-1.32,2,3.85,3.85,0,0,1-2.33.6q-3,.06-6,0a4.05,4.05,0,0,1-1.26-.2c-1.37-.35-1.79-1.23-1.26-2.65s1.08-2.72,1.66-4c.26-.76.55-1.53.86-2.33q2.58-6.61,5.17-13.26Q66.52,187.3,70.1,178c.17-.4.33-.8.46-1.2q2.58-6.56,5.17-13.13a4.77,4.77,0,0,1,1.49-2.15A4.37,4.37,0,0,1,79.64,161Zm-2.32,36.13v.07h.4a6.36,6.36,0,0,0,1-.07,1.86,1.86,0,0,0,1.12-.23,1.4,1.4,0,0,0,.27-1Q80,190.09,80,184.31c-.09-.22-.18-.44-.26-.66a2.73,2.73,0,0,0-.14-.33,2.23,2.23,0,0,1-.2.33,2,2,0,0,0-.26.66q-1.67,4.45-3.25,8.89a5.68,5.68,0,0,0-.26.6,6.61,6.61,0,0,1-.4,1.26,6,6,0,0,0-.4,1.19c-.22.57,0,.86.53.86Z"/><path d="M136.46,171.65,128.84,215a8,8,0,0,1-.47,1.73,3,3,0,0,1-2.85,2.25q-2.64.06-5.37,0a2.37,2.37,0,0,1-2.25-1.79q-1.66-5.37-3.38-10.67-.93-2.92-1.79-5.77c-.18-.53-.33-1.06-.47-1.59s-.35-1.13-.53-1.66a.63.63,0,0,0-.26-.33.19.19,0,0,1-.07-.14.55.55,0,0,0-.2.2,2.13,2.13,0,0,0-.2.4,7.72,7.72,0,0,0-.2.93l-.66,3.78q-1.26,7-2.39,13.92a6.51,6.51,0,0,1-.36,1.16,1.81,1.81,0,0,1-.83.9,5.87,5.87,0,0,1-1,.43,5.13,5.13,0,0,1-1,.23q-3.12.06-6.23,0a2,2,0,0,1-2.13-2.25,7.07,7.07,0,0,1,.14-1.4l7.82-44.22a4.58,4.58,0,0,1,.2-.79,3,3,0,0,1,3.18-2.46h5a2.29,2.29,0,0,1,2.33,1.53c.35,1,.68,2,1,3,.62,1.85,1.21,3.71,1.79,5.57q1.65,5.29,3.31,10.54a2.6,2.6,0,0,0,.4.73.79.79,0,0,1,.2.33c0-.13.09-.27.13-.4a4.94,4.94,0,0,0,.4-.86l3.18-18.1a3.56,3.56,0,0,1,.9-1.69,2.54,2.54,0,0,1,1.69-.7c2.25,0,4.51,0,6.76,0a2,2,0,0,1,1.4.57,2.62,2.62,0,0,1,.59,1.42A8,8,0,0,1,136.46,171.65Z"/><path d="M241.22,322.73l-2,.09c-1.5.07-3,.11-4.57.12a2.78,2.78,0,0,1-2.19-.46,3,3,0,0,1-.74-2.14,11.53,11.53,0,0,1,0-1.44l.7-5.74c.14-.54.3-1.08.49-1.63a4.65,4.65,0,0,1,1.36-2.07,3.52,3.52,0,0,1,2.13-.73l13.39-.6c2,0,2.85,1,2.62,3-.3,2.69-.67,5.39-1.08,8.08a3.21,3.21,0,0,1-3.31,3.12c-1.6.13-3.18.23-4.73.3Z"/><path d="M293.8,331.34c1.41-.06,2.36.19,2.84.76a4.05,4.05,0,0,1,.47,3q-.42,3.84-1,7.78a5,5,0,0,1-1.11,2.64,4.28,4.28,0,0,1-2.63,1.18l-26.63,1.19a9.71,9.71,0,0,1-2.21-.15,2.19,2.19,0,0,1-1.45-.83,3.39,3.39,0,0,1-.45-1.72l5-38.13q1.42-10.17,2.58-20.34a5.76,5.76,0,0,1,1.66-3.77,5,5,0,0,1,3.48-1c1.53,0,3.06-.08,4.58-.21l2.29-.1c1.53-.07,2.54.17,3.05.71s.65,1.59.44,3.13L279,329c-.12,1-.19,1.68-.2,2.13s.15.72.46.79a5.22,5.22,0,0,0,1.57,0l1-.05c2.09,0,4.19-.13,6.28-.28Z"/><path d="M340.49,279a2.92,2.92,0,0,1,2.7,1.28,3.55,3.55,0,0,1-.28,3.21q-1.19,2.1-2.36,4.28l-.79,1.4c-.84,1.51-1.71,3.06-2.61,4.63q-7.09,12.84-14.27,25.6a7,7,0,0,0-1,3.11l-2.42,18.25a10.5,10.5,0,0,1-.19,1.37,4.93,4.93,0,0,1-1.05,2.27,3.4,3.4,0,0,1-2,1.11,49.29,49.29,0,0,1-5.21.62,26.51,26.51,0,0,1-5-.16,2.26,2.26,0,0,1-1.79-.95,4.16,4.16,0,0,1-.39-2.11l2.54-19.45a5.68,5.68,0,0,0-.24-3.23q-5.26-17-10.63-33.94a6.86,6.86,0,0,1-.24-1.6,3,3,0,0,1,.46-2,3.7,3.7,0,0,1,1.69-1.39,7.82,7.82,0,0,1,2.28-.45l2.89-.13c1.36,0,2.75-.06,4.16-.18a4.56,4.56,0,0,1,3,.59,4.21,4.21,0,0,1,1.64,2.44q1.71,5.72,3.41,11.35.78,2.34,1.49,4.7a.37.37,0,0,1,0,.34c.07.17.13.33.19.5a.6.6,0,0,1,.14.21.6.6,0,0,0,.14.21c.06.05.09.05.08,0a.77.77,0,0,0,.42-.19,1.05,1.05,0,0,0,.33-.35q.87-1.41,1.65-3a2.66,2.66,0,0,0,.24-.52c.73-1.23,1.45-2.45,2.13-3.68q2.91-5.32,5.83-10.65a5.33,5.33,0,0,1,4.71-3.11Z"/><path d="M379.34,322.59q-.3,3-.87,6a23.62,23.62,0,0,1-1.76,6,15,15,0,0,1-4.93,6.12,15.62,15.62,0,0,1-7,2.7c-2.28.27-4.52.48-6.72.61s-4.38.24-6.55.33a20.4,20.4,0,0,1-5.76-.71,9.84,9.84,0,0,1-5.67-3.8,10.48,10.48,0,0,1-1.85-6.79c.14-2.06.34-4.16.6-6.28,0-.59.07-1.18.1-1.77a14.41,14.41,0,0,1,.36-1.69,5,5,0,0,1,1.41-2.13,3.84,3.84,0,0,1,2.34-.77q4.49-.29,9-.4a2.74,2.74,0,0,1,2.37.78,3.26,3.26,0,0,1,.51,2.53c0,.53-.07,1.09-.1,1.68l-.19,1.59c-.14.83-.09,1.39.16,1.67a1.91,1.91,0,0,0,1.51.37c1.59,0,3.17-.08,4.75-.21a2.38,2.38,0,0,0,1.52-.47,2.2,2.2,0,0,0,.6-1.39c.32-2.13.6-4.28.86-6.47a2.18,2.18,0,0,0-.06-1.28,2.35,2.35,0,0,0-1.08-.61c-2.26-.6-4.49-1.24-6.7-1.9-1.43-.41-2.82-.81-4.19-1.22-2.44-.72-4.83-1.43-7.15-2.15a5.17,5.17,0,0,1-3-2.07,6,6,0,0,1-.47-3.59q.79-7.78,2-15.51a26.22,26.22,0,0,1,1.92-6.25,14.12,14.12,0,0,1,4.53-6,15.82,15.82,0,0,1,6.79-2.9,34.72,34.72,0,0,1,3.5-.51c1.17-.11,2.34-.19,3.52-.25l.52,0,4.89-.18c1.61,0,3.21,0,4.8.1a10.3,10.3,0,0,1,7.05,2.9,10.74,10.74,0,0,1,2.92,7.14,29.89,29.89,0,0,1-.12,4.23c-.14,1.42-.33,2.81-.56,4.17a17,17,0,0,1-.43,2.31,3.07,3.07,0,0,1-1,2,3.57,3.57,0,0,1-2.12,1c-3.39.21-6.74.36-10,.45a2.48,2.48,0,0,1-2-.84,2.74,2.74,0,0,1-.53-2.05l.44-3.89c.14-.77.08-1.28-.2-1.54a2.17,2.17,0,0,0-1.55-.32c-1.59,0-3.17.08-4.75.21a2.43,2.43,0,0,0-1.57.51,2,2,0,0,0-.55,1.44c-.28,1.59-.5,3.22-.66,4.87a3.1,3.1,0,0,0-.09,1.06.69.69,0,0,0,.34.52,4.79,4.79,0,0,0,1.07.39c3,.92,6.07,1.81,9.11,2.67.47.16,1,.31,1.52.47s1,.3,1.51.46l5.36,1.52a5.06,5.06,0,0,1,3.31,2.1,6.17,6.17,0,0,1,.49,4.16q-.48,2.85-.71,5.67Z"/><path d="M398.79,338.16a3.09,3.09,0,0,1-.22,1.25,4.57,4.57,0,0,1-.94,1.82,3.49,3.49,0,0,1-1.77,1.06,8.43,8.43,0,0,1-2,.36l-8.69.38a3.22,3.22,0,0,1-2-.75,3,3,0,0,1-.71-2.06,10.77,10.77,0,0,1,.09-2l7.82-59.65a6.9,6.9,0,0,1,.22-1.08A4.41,4.41,0,0,1,392,275a4.47,4.47,0,0,1,2.71-.92l8.52-.38a3.5,3.5,0,0,1,2.93.85,4,4,0,0,1,.54,3.08Z"/><path d="M448.56,319.73c-.2,2-.5,4-.88,6.09a24.1,24.1,0,0,1-1.78,6,15.27,15.27,0,0,1-5,6.19,15.91,15.91,0,0,1-7.09,2.72q-3.45.42-6.78.61t-6.62.34a20.78,20.78,0,0,1-5.82-.72,10,10,0,0,1-5.73-3.83,10.69,10.69,0,0,1-1.87-6.86c.15-2.09.35-4.2.61-6.35,0-.59.07-1.19.1-1.78a12.59,12.59,0,0,1,.37-1.71,5.07,5.07,0,0,1,1.41-2.16,3.94,3.94,0,0,1,2.37-.77q4.53-.29,9.06-.41a2.76,2.76,0,0,1,2.4.79,3.33,3.33,0,0,1,.51,2.56c0,.53-.07,1.1-.1,1.69l-.2,1.61a2.15,2.15,0,0,0,.17,1.69,1.91,1.91,0,0,0,1.53.37c1.6,0,3.2-.08,4.79-.21a2.49,2.49,0,0,0,1.54-.47,2.21,2.21,0,0,0,.61-1.41c.32-2.15.6-4.33.86-6.54a2.17,2.17,0,0,0-.06-1.28,2.25,2.25,0,0,0-1.09-.62q-3.43-.92-6.76-1.92c-1.45-.41-2.86-.82-4.24-1.24-2.47-.72-4.87-1.44-7.22-2.17a5.26,5.26,0,0,1-3.08-2.08,6.15,6.15,0,0,1-.47-3.63q.81-7.87,2.06-15.67a27,27,0,0,1,1.94-6.32,14.24,14.24,0,0,1,4.58-6,16.1,16.1,0,0,1,6.86-2.94,35.08,35.08,0,0,1,3.54-.51c1.18-.11,2.36-.2,3.55-.25l.53,0c1.66-.08,3.3-.13,4.93-.18s3.25,0,4.85.1a10.39,10.39,0,0,1,7.12,2.93,10.83,10.83,0,0,1,3,7.21,30.5,30.5,0,0,1-.12,4.27c-.14,1.44-.33,2.84-.57,4.21a14.78,14.78,0,0,1-.43,2.34,3.11,3.11,0,0,1-1,2,3.7,3.7,0,0,1-2.14,1q-5.14.32-10.12.45a2.49,2.49,0,0,1-2-.85,2.72,2.72,0,0,1-.54-2.06l.45-3.94c.14-.78.08-1.29-.2-1.55a2.28,2.28,0,0,0-1.57-.33c-1.6,0-3.21.09-4.8.22a2.46,2.46,0,0,0-1.58.51,2,2,0,0,0-.56,1.45c-.28,1.62-.51,3.26-.67,4.93a3.08,3.08,0,0,0-.08,1.07.73.73,0,0,0,.33.52,5.08,5.08,0,0,0,1.09.39c3.07.94,6.13,1.84,9.2,2.71.48.15,1,.31,1.53.46s1.05.31,1.53.47l5.41,1.54a5.12,5.12,0,0,1,3.35,2.12,6.27,6.27,0,0,1,.5,4.2q-.5,2.88-.73,5.73Z"/></svg>